# xmcd
#
# Track frame offsets:
#	150
#	17113
#	30586
#	41400
#	55545
#	76890
#	84813
#	101871
#	117319
#	136426
#	149611
#
# Disc length: 2179 seconds
#
# Revision: 0
# Processed by: cddbd v1.5.2PL0 Copyright (c) Steve Scherf et al.
# Submitted via: audiograbber 1.83.01
#
DISCID=8808810b
DTITLE=Alabama Shakes - Boys And Girls
DYEAR=1900
DGENRE=
TTITLE0=Hold On
TTITLE1=I Found You
TTITLE2=Hang Loose
TTITLE3=Rise To The Sun
TTITLE4=You Ain't Alone
TTITLE5=Goin' To The Party
TTITLE6=Heartbreaker
TTITLE7=Boys And Girls
TTITLE8=Be Mine
TTITLE9=I Ain't The Same
TTITLE10=On Your Way
EXTD=
EXTT0=
EXTT1=
EXTT2=
EXTT3=
EXTT4=
EXTT5=
EXTT6=
EXTT7=
EXTT8=
EXTT9=
EXTT10=
PLAYORDER=
